<?xml version="1.0" encoding="UTF-8" ?>
<svg viewBox="0 0 450 340"
xmlns="http://www.w3.org/2000/svg" version="1.1">
<style>
 .label { font: italic 14px sans-serif; }
</style><rect x="0" y="0" width="450" height="340" fill="white" stroke="none" stroke-width="0"/>
<polyline fill="none" stroke="black" stroke_width="2" points="51.25,40 51.25,56.4"/>
<polygon fill="black" points="51.25,60 53.05,56.4 49.45,56.4"/>
<polyline fill="none" stroke="black" stroke_width="2" points="73.75,40 73.75,56.4"/>
<polygon fill="black" points="73.75,60 75.55,56.4 71.95,56.4"/>
<polyline fill="none" stroke="black" stroke_width="2" points="138.75,40 138.75,56.4"/>
<polygon fill="black" points="138.75,60 140.55,56.4 136.95,56.4"/>
<polyline fill="none" stroke="black" stroke_width="2" points="203.75,40 203.75,56.4"/>
<polygon fill="black" points="203.75,60 205.55,56.4 201.95,56.4"/>
<polyline fill="none" stroke="black" stroke_width="2" points="268.75,40 268.75,56.4"/>
<polygon fill="black" points="268.75,60 270.55,56.4 266.95,56.4"/>
<polyline fill="none" stroke="black" stroke_width="2" points="333.75,40 333.75,56.4"/>
<polygon fill="black" points="333.75,60 335.55,56.4 331.95,56.4"/>
<polyline fill="none" stroke="black" stroke_width="2" points="398.75,40 398.75,56.4"/>
<polygon fill="black" points="398.75,60 400.55,56.4 396.95,56.4"/>
<rect x="40" y="60" width="45" height="20" fill="lightblue" stroke="black" stroke-width="1.0"/>
<polyline fill="none" stroke="black" stroke_width="2" points="51.25,80 51.25,85.0 95.0,85.0 95.0,55.0 116.25,55.0 116.25,56.4"/>
<polygon fill="black" points="116.25,60 118.05,56.4 114.45,56.4"/>
<polyline fill="none" stroke="black" stroke_width="2" points="73.75,80 73.75,96.4"/>
<polygon fill="black" points="73.75,100 75.55,96.4 71.95,96.4"/>
<rect x="105" y="60" width="45" height="20" fill="lightblue" stroke="black" stroke-width="1.0"/>
<polyline fill="none" stroke="black" stroke_width="2" points="116.25,80 116.25,85.0 160.0,85.0 160.0,55.0 181.25,55.0 181.25,56.4"/>
<polygon fill="black" points="181.25,60 183.05,56.4 179.45,56.4"/>
<polyline fill="none" stroke="black" stroke_width="2" points="138.75,80 138.75,96.4"/>
<polygon fill="black" points="138.75,100 140.55,96.4 136.95,96.4"/>
<rect x="170" y="60" width="45" height="20" fill="lightblue" stroke="black" stroke-width="1.0"/>
<polyline fill="none" stroke="black" stroke_width="2" points="181.25,80 181.25,85.0 225.0,85.0 225.0,55.0 246.25,55.0 246.25,56.4"/>
<polygon fill="black" points="246.25,60 248.05,56.4 244.45,56.4"/>
<polyline fill="none" stroke="black" stroke_width="2" points="203.75,80 203.75,96.4"/>
<polygon fill="black" points="203.75,100 205.55,96.4 201.95,96.4"/>
<rect x="235" y="60" width="45" height="20" fill="lightblue" stroke="black" stroke-width="1.0"/>
<polyline fill="none" stroke="black" stroke_width="2" points="246.25,80 246.25,85.0 290.0,85.0 290.0,55.0 311.25,55.0 311.25,56.4"/>
<polygon fill="black" points="311.25,60 313.05,56.4 309.45,56.4"/>
<polyline fill="none" stroke="black" stroke_width="2" points="268.75,80 268.75,96.4"/>
<polygon fill="black" points="268.75,100 270.55,96.4 266.95,96.4"/>
<rect x="300" y="60" width="45" height="20" fill="lightblue" stroke="black" stroke-width="1.0"/>
<polyline fill="none" stroke="black" stroke_width="2" points="311.25,80 311.25,85.0 355.0,85.0 355.0,55.0 376.25,55.0 376.25,56.4"/>
<polygon fill="black" points="376.25,60 378.05,56.4 374.45,56.4"/>
<polyline fill="none" stroke="black" stroke_width="2" points="333.75,80 333.75,96.4"/>
<polygon fill="black" points="333.75,100 335.55,96.4 331.95,96.4"/>
<rect x="365" y="60" width="45" height="20" fill="lightblue" stroke="black" stroke-width="1.0"/>
<polyline fill="none" stroke="black" stroke_width="2" points="398.75,80 398.75,96.4"/>
<polygon fill="black" points="398.75,100 400.55,96.4 396.95,96.4"/>
<polyline fill="none" stroke="black" stroke_width="2" points="376.25,80 376.25,90.0 51.25,90.0 51.25,96.4"/>
<polygon fill="black" points="51.25,100 53.05,96.4 49.45,96.4"/>
<rect x="40" y="100" width="45" height="20" fill="lightblue" stroke="black" stroke-width="1.0"/>
<polyline fill="none" stroke="black" stroke_width="2" points="51.25,120 51.25,125.0 95.0,125.0 95.0,95.0 116.25,95.0 116.25,96.4"/>
<polygon fill="black" points="116.25,100 118.05,96.4 114.45,96.4"/>
<polyline fill="none" stroke="black" stroke_width="2" points="73.75,120 73.75,136.4"/>
<polygon fill="black" points="73.75,140 75.55,136.4 71.95,136.4"/>
<rect x="105" y="100" width="45" height="20" fill="lightblue" stroke="black" stroke-width="1.0"/>
<polyline fill="none" stroke="black" stroke_width="2" points="116.25,120 116.25,125.0 160.0,125.0 160.0,95.0 181.25,95.0 181.25,96.4"/>
<polygon fill="black" points="181.25,100 183.05,96.4 179.45,96.4"/>
<polyline fill="none" stroke="black" stroke_width="2" points="138.75,120 138.75,136.4"/>
<polygon fill="black" points="138.75,140 140.55,136.4 136.95,136.4"/>
<rect x="170" y="100" width="45" height="20" fill="lightblue" stroke="black" stroke-width="1.0"/>
<polyline fill="none" stroke="black" stroke_width="2" points="181.25,120 181.25,125.0 225.0,125.0 225.0,95.0 246.25,95.0 246.25,96.4"/>
<polygon fill="black" points="246.25,100 248.05,96.4 244.45,96.4"/>
<polyline fill="none" stroke="black" stroke_width="2" points="203.75,120 203.75,136.4"/>
<polygon fill="black" points="203.75,140 205.55,136.4 201.95,136.4"/>
<rect x="235" y="100" width="45" height="20" fill="lightblue" stroke="black" stroke-width="1.0"/>
<polyline fill="none" stroke="black" stroke_width="2" points="246.25,120 246.25,125.0 290.0,125.0 290.0,95.0 311.25,95.0 311.25,96.4"/>
<polygon fill="black" points="311.25,100 313.05,96.4 309.45,96.4"/>
<polyline fill="none" stroke="black" stroke_width="2" points="268.75,120 268.75,136.4"/>
<polygon fill="black" points="268.75,140 270.55,136.4 266.95,136.4"/>
<rect x="300" y="100" width="45" height="20" fill="lightblue" stroke="black" stroke-width="1.0"/>
<polyline fill="none" stroke="black" stroke_width="2" points="311.25,120 311.25,125.0 355.0,125.0 355.0,95.0 376.25,95.0 376.25,96.4"/>
<polygon fill="black" points="376.25,100 378.05,96.4 374.45,96.4"/>
<polyline fill="none" stroke="black" stroke_width="2" points="333.75,120 333.75,136.4"/>
<polygon fill="black" points="333.75,140 335.55,136.4 331.95,136.4"/>
<rect x="365" y="100" width="45" height="20" fill="lightblue" stroke="black" stroke-width="1.0"/>
<polyline fill="none" stroke="black" stroke_width="2" points="398.75,120 398.75,136.4"/>
<polygon fill="black" points="398.75,140 400.55,136.4 396.95,136.4"/>
<polyline fill="none" stroke="black" stroke_width="2" points="376.25,120 376.25,130.0 51.25,130.0 51.25,136.4"/>
<polygon fill="black" points="51.25,140 53.05,136.4 49.45,136.4"/>
<rect x="40" y="140" width="45" height="20" fill="lightblue" stroke="black" stroke-width="1.0"/>
<polyline fill="none" stroke="black" stroke_width="2" points="51.25,160 51.25,165.0 95.0,165.0 95.0,135.0 116.25,135.0 116.25,136.4"/>
<polygon fill="black" points="116.25,140 118.05,136.4 114.45,136.4"/>
<polyline fill="none" stroke="black" stroke_width="2" points="73.75,160 73.75,176.4"/>
<polygon fill="black" points="73.75,180 75.55,176.4 71.95,176.4"/>
<rect x="105" y="140" width="45" height="20" fill="lightblue" stroke="black" stroke-width="1.0"/>
<polyline fill="none" stroke="black" stroke_width="2" points="116.25,160 116.25,165.0 160.0,165.0 160.0,135.0 181.25,135.0 181.25,136.4"/>
<polygon fill="black" points="181.25,140 183.05,136.4 179.45,136.4"/>
<polyline fill="none" stroke="black" stroke_width="2" points="138.75,160 138.75,176.4"/>
<polygon fill="black" points="138.75,180 140.55,176.4 136.95,176.4"/>
<rect x="170" y="140" width="45" height="20" fill="lightblue" stroke="black" stroke-width="1.0"/>
<polyline fill="none" stroke="black" stroke_width="2" points="181.25,160 181.25,165.0 225.0,165.0 225.0,135.0 246.25,135.0 246.25,136.4"/>
<polygon fill="black" points="246.25,140 248.05,136.4 244.45,136.4"/>
<polyline fill="none" stroke="black" stroke_width="2" points="203.75,160 203.75,176.4"/>
<polygon fill="black" points="203.75,180 205.55,176.4 201.95,176.4"/>
<rect x="235" y="140" width="45" height="20" fill="lightblue" stroke="black" stroke-width="1.0"/>
<polyline fill="none" stroke="black" stroke_width="2" points="246.25,160 246.25,165.0 290.0,165.0 290.0,135.0 311.25,135.0 311.25,136.4"/>
<polygon fill="black" points="311.25,140 313.05,136.4 309.45,136.4"/>
<polyline fill="none" stroke="black" stroke_width="2" points="268.75,160 268.75,176.4"/>
<polygon fill="black" points="268.75,180 270.55,176.4 266.95,176.4"/>
<rect x="300" y="140" width="45" height="20" fill="lightblue" stroke="black" stroke-width="1.0"/>
<polyline fill="none" stroke="black" stroke_width="2" points="311.25,160 311.25,165.0 355.0,165.0 355.0,135.0 376.25,135.0 376.25,136.4"/>
<polygon fill="black" points="376.25,140 378.05,136.4 374.45,136.4"/>
<polyline fill="none" stroke="black" stroke_width="2" points="333.75,160 333.75,176.4"/>
<polygon fill="black" points="333.75,180 335.55,176.4 331.95,176.4"/>
<rect x="365" y="140" width="45" height="20" fill="lightblue" stroke="black" stroke-width="1.0"/>
<polyline fill="none" stroke="black" stroke_width="2" points="398.75,160 398.75,176.4"/>
<polygon fill="black" points="398.75,180 400.55,176.4 396.95,176.4"/>
<polyline fill="none" stroke="black" stroke_width="2" points="376.25,160 376.25,170.0 51.25,170.0 51.25,176.4"/>
<polygon fill="black" points="51.25,180 53.05,176.4 49.45,176.4"/>
<rect x="40" y="180" width="45" height="20" fill="lightblue" stroke="black" stroke-width="1.0"/>
<polyline fill="none" stroke="black" stroke_width="2" points="51.25,200 51.25,205.0 95.0,205.0 95.0,175.0 116.25,175.0 116.25,176.4"/>
<polygon fill="black" points="116.25,180 118.05,176.4 114.45,176.4"/>
<polyline fill="none" stroke="black" stroke_width="2" points="73.75,200 73.75,216.4"/>
<polygon fill="black" points="73.75,220 75.55,216.4 71.95,216.4"/>
<rect x="105" y="180" width="45" height="20" fill="lightblue" stroke="black" stroke-width="1.0"/>
<polyline fill="none" stroke="black" stroke_width="2" points="116.25,200 116.25,205.0 160.0,205.0 160.0,175.0 181.25,175.0 181.25,176.4"/>
<polygon fill="black" points="181.25,180 183.05,176.4 179.45,176.4"/>
<polyline fill="none" stroke="black" stroke_width="2" points="138.75,200 138.75,216.4"/>
<polygon fill="black" points="138.75,220 140.55,216.4 136.95,216.4"/>
<rect x="170" y="180" width="45" height="20" fill="lightblue" stroke="black" stroke-width="1.0"/>
<polyline fill="none" stroke="black" stroke_width="2" points="181.25,200 181.25,205.0 225.0,205.0 225.0,175.0 246.25,175.0 246.25,176.4"/>
<polygon fill="black" points="246.25,180 248.05,176.4 244.45,176.4"/>
<polyline fill="none" stroke="black" stroke_width="2" points="203.75,200 203.75,216.4"/>
<polygon fill="black" points="203.75,220 205.55,216.4 201.95,216.4"/>
<rect x="235" y="180" width="45" height="20" fill="lightblue" stroke="black" stroke-width="1.0"/>
<polyline fill="none" stroke="black" stroke_width="2" points="246.25,200 246.25,205.0 290.0,205.0 290.0,175.0 311.25,175.0 311.25,176.4"/>
<polygon fill="black" points="311.25,180 313.05,176.4 309.45,176.4"/>
<polyline fill="none" stroke="black" stroke_width="2" points="268.75,200 268.75,216.4"/>
<polygon fill="black" points="268.75,220 270.55,216.4 266.95,216.4"/>
<rect x="300" y="180" width="45" height="20" fill="lightblue" stroke="black" stroke-width="1.0"/>
<polyline fill="none" stroke="black" stroke_width="2" points="311.25,200 311.25,205.0 355.0,205.0 355.0,175.0 376.25,175.0 376.25,176.4"/>
<polygon fill="black" points="376.25,180 378.05,176.4 374.45,176.4"/>
<polyline fill="none" stroke="black" stroke_width="2" points="333.75,200 333.75,216.4"/>
<polygon fill="black" points="333.75,220 335.55,216.4 331.95,216.4"/>
<rect x="365" y="180" width="45" height="20" fill="lightblue" stroke="black" stroke-width="1.0"/>
<polyline fill="none" stroke="black" stroke_width="2" points="398.75,200 398.75,216.4"/>
<polygon fill="black" points="398.75,220 400.55,216.4 396.95,216.4"/>
<polyline fill="none" stroke="black" stroke_width="2" points="376.25,200 376.25,210.0 51.25,210.0 51.25,216.4"/>
<polygon fill="black" points="51.25,220 53.05,216.4 49.45,216.4"/>
<rect x="40" y="220" width="45" height="20" fill="lightblue" stroke="black" stroke-width="1.0"/>
<polyline fill="none" stroke="black" stroke_width="2" points="51.25,240 51.25,245.0 95.0,245.0 95.0,215.0 116.25,215.0 116.25,216.4"/>
<polygon fill="black" points="116.25,220 118.05,216.4 114.45,216.4"/>
<polyline fill="none" stroke="black" stroke_width="2" points="73.75,240 73.75,256.4"/>
<polygon fill="black" points="73.75,260 75.55,256.4 71.95,256.4"/>
<rect x="105" y="220" width="45" height="20" fill="lightblue" stroke="black" stroke-width="1.0"/>
<polyline fill="none" stroke="black" stroke_width="2" points="116.25,240 116.25,245.0 160.0,245.0 160.0,215.0 181.25,215.0 181.25,216.4"/>
<polygon fill="black" points="181.25,220 183.05,216.4 179.45,216.4"/>
<polyline fill="none" stroke="black" stroke_width="2" points="138.75,240 138.75,256.4"/>
<polygon fill="black" points="138.75,260 140.55,256.4 136.95,256.4"/>
<rect x="170" y="220" width="45" height="20" fill="lightblue" stroke="black" stroke-width="1.0"/>
<polyline fill="none" stroke="black" stroke_width="2" points="181.25,240 181.25,245.0 225.0,245.0 225.0,215.0 246.25,215.0 246.25,216.4"/>
<polygon fill="black" points="246.25,220 248.05,216.4 244.45,216.4"/>
<polyline fill="none" stroke="black" stroke_width="2" points="203.75,240 203.75,256.4"/>
<polygon fill="black" points="203.75,260 205.55,256.4 201.95,256.4"/>
<rect x="235" y="220" width="45" height="20" fill="lightblue" stroke="black" stroke-width="1.0"/>
<polyline fill="none" stroke="black" stroke_width="2" points="246.25,240 246.25,245.0 290.0,245.0 290.0,215.0 311.25,215.0 311.25,216.4"/>
<polygon fill="black" points="311.25,220 313.05,216.4 309.45,216.4"/>
<polyline fill="none" stroke="black" stroke_width="2" points="268.75,240 268.75,256.4"/>
<polygon fill="black" points="268.75,260 270.55,256.4 266.95,256.4"/>
<rect x="300" y="220" width="45" height="20" fill="lightblue" stroke="black" stroke-width="1.0"/>
<polyline fill="none" stroke="black" stroke_width="2" points="311.25,240 311.25,245.0 355.0,245.0 355.0,215.0 376.25,215.0 376.25,216.4"/>
<polygon fill="black" points="376.25,220 378.05,216.4 374.45,216.4"/>
<polyline fill="none" stroke="black" stroke_width="2" points="333.75,240 333.75,256.4"/>
<polygon fill="black" points="333.75,260 335.55,256.4 331.95,256.4"/>
<rect x="365" y="220" width="45" height="20" fill="lightblue" stroke="black" stroke-width="1.0"/>
<polyline fill="none" stroke="black" stroke_width="2" points="398.75,240 398.75,256.4"/>
<polygon fill="black" points="398.75,260 400.55,256.4 396.95,256.4"/>
<polyline fill="none" stroke="black" stroke_width="2" points="376.25,240 376.25,250.0 51.25,250.0 51.25,256.4"/>
<polygon fill="black" points="51.25,260 53.05,256.4 49.45,256.4"/>
<rect x="40" y="260" width="45" height="20" fill="lightblue" stroke="black" stroke-width="1.0"/>
<polyline fill="none" stroke="black" stroke_width="2" points="51.25,280 51.25,285.0 95.0,285.0 95.0,255.0 116.25,255.0 116.25,256.4"/>
<polygon fill="black" points="116.25,260 118.05,256.4 114.45,256.4"/>
<polyline fill="none" stroke="black" stroke_width="2" points="73.75,280 73.75,296.4"/>
<polygon fill="black" points="73.75,300 75.55,296.4 71.95,296.4"/>
<rect x="105" y="260" width="45" height="20" fill="lightblue" stroke="black" stroke-width="1.0"/>
<polyline fill="none" stroke="black" stroke_width="2" points="116.25,280 116.25,285.0 160.0,285.0 160.0,255.0 181.25,255.0 181.25,256.4"/>
<polygon fill="black" points="181.25,260 183.05,256.4 179.45,256.4"/>
<polyline fill="none" stroke="black" stroke_width="2" points="138.75,280 138.75,296.4"/>
<polygon fill="black" points="138.75,300 140.55,296.4 136.95,296.4"/>
<rect x="170" y="260" width="45" height="20" fill="lightblue" stroke="black" stroke-width="1.0"/>
<polyline fill="none" stroke="black" stroke_width="2" points="181.25,280 181.25,285.0 225.0,285.0 225.0,255.0 246.25,255.0 246.25,256.4"/>
<polygon fill="black" points="246.25,260 248.05,256.4 244.45,256.4"/>
<polyline fill="none" stroke="black" stroke_width="2" points="203.75,280 203.75,296.4"/>
<polygon fill="black" points="203.75,300 205.55,296.4 201.95,296.4"/>
<rect x="235" y="260" width="45" height="20" fill="lightblue" stroke="black" stroke-width="1.0"/>
<polyline fill="none" stroke="black" stroke_width="2" points="246.25,280 246.25,285.0 290.0,285.0 290.0,255.0 311.25,255.0 311.25,256.4"/>
<polygon fill="black" points="311.25,260 313.05,256.4 309.45,256.4"/>
<polyline fill="none" stroke="black" stroke_width="2" points="268.75,280 268.75,296.4"/>
<polygon fill="black" points="268.75,300 270.55,296.4 266.95,296.4"/>
<rect x="300" y="260" width="45" height="20" fill="lightblue" stroke="black" stroke-width="1.0"/>
<polyline fill="none" stroke="black" stroke_width="2" points="311.25,280 311.25,285.0 355.0,285.0 355.0,255.0 376.25,255.0 376.25,256.4"/>
<polygon fill="black" points="376.25,260 378.05,256.4 374.45,256.4"/>
<polyline fill="none" stroke="black" stroke_width="2" points="333.75,280 333.75,296.4"/>
<polygon fill="black" points="333.75,300 335.55,296.4 331.95,296.4"/>
<rect x="365" y="260" width="45" height="20" fill="lightblue" stroke="black" stroke-width="1.0"/>
<polyline fill="none" stroke="black" stroke_width="2" points="398.75,280 398.75,296.4"/>
<polygon fill="black" points="398.75,300 400.55,296.4 396.95,296.4"/>
<polyline fill="none" stroke="black" stroke_width="2" points="376.25,280 376.25,290.0 51.25,290.0 51.25,296.4"/>
<polygon fill="black" points="51.25,300 53.05,296.4 49.45,296.4"/>
<text text-anchor="middle" class="label" x="51.25" y="35">IV</text>
<text text-anchor="middle" class="label" x="73.75" y="35">m[0]</text>
<text text-anchor="middle" class="label" x="138.75" y="35">m[1]</text>
<text text-anchor="middle" class="label" x="203.75" y="35">m[2]</text>
<text text-anchor="middle" class="label" x="268.75" y="35">m[3]</text>
<text text-anchor="middle" class="label" x="333.75" y="35">m[4]</text>
<text text-anchor="middle" class="label" x="398.75" y="35">m[5]</text>
<text text-anchor="middle" class="label" x="51.25" y="312">c[0]</text>
<text text-anchor="middle" class="label" x="73.75" y="312">c[1]</text>
<text text-anchor="middle" class="label" x="138.75" y="312">c[2]</text>
<text text-anchor="middle" class="label" x="203.75" y="312">c[3]</text>
<text text-anchor="middle" class="label" x="268.75" y="312">c[4]</text>
<text text-anchor="middle" class="label" x="333.75" y="312">c[5]</text>
<text text-anchor="middle" class="label" x="398.75" y="312">c[6]</text>
</svg>
